<svg width="681" height="144" viewBox="0 0 681 144" fill="none" xmlns="http://www.w3.org/2000/svg">
<rect x="16.0723" y="16.7018" width="110.105" height="110.105" fill="#194FF4"/>
<path d="M104.057 76.4221C102.171 75.1282 99.6947 73.9023 97.7149 73.2042C97.3117 73.068 96.9014 72.9318 96.491 72.8013C94.2952 72.1146 92.0131 71.6038 89.7021 71.3427C88.1039 71.1611 86.4769 71.2236 84.9074 71.5016C84.6699 71.5414 84.4323 71.5924 84.1947 71.6435C81.423 72.2565 79.0545 73.5391 76.7147 74.8501C74.1446 76.2916 71.5888 77.7502 68.5508 78.3574C64.5336 79.1576 60.3796 78.8341 56.0889 77.1713C54.0731 76.3938 52.0213 75.3155 49.9407 73.9193C49.6887 73.7491 49.4368 73.5788 49.192 73.3972C47.5218 72.1997 45.9667 70.8263 44.5053 69.3734C42.0071 66.8933 39.7682 64.1805 37.6084 61.6947C37.8892 61.899 38.1771 62.109 38.4867 62.3133C40.1857 63.4427 42.2591 64.5153 44.5053 65.4801V50.5087C44.5053 50.1965 44.8292 49.9411 45.2252 49.9411H55.3689C55.7649 49.9411 56.0889 50.1965 56.0889 50.5087V69.1294C58.2342 69.572 60.1852 69.8161 61.7187 69.8161C66.139 69.8161 69.2923 67.8808 72.9495 66.2009C76.6499 64.4983 80.8183 63.3349 84.9074 63.4654V50.5087C84.9074 50.1965 85.2314 49.9411 85.6274 49.9411H95.7711C96.1671 49.9411 96.491 50.1965 96.491 50.5087V68.244C97.2469 68.8683 97.9597 69.5153 98.6364 70.1793C99.6011 71.1157 100.501 72.0919 101.351 73.0851C101.682 73.4767 102.164 74.0669 102.625 74.6287C103.158 75.2757 104.065 76.4221 104.065 76.4221H104.057Z" fill="white"/>
<path d="M56.0814 81.0646V93.851C56.0814 94.1632 55.7574 94.4186 55.3615 94.4186H45.2177C44.8218 94.4186 44.4978 94.1632 44.4978 93.851V73.261C46.1752 74.9296 47.975 76.4903 49.9332 77.807C52.0138 79.2031 54.0656 80.2814 56.0814 81.0646Z" fill="white"/>
<path d="M96.4845 76.6952V93.8517C96.4845 94.1639 96.1605 94.4192 95.7645 94.4192H85.6208C85.2248 94.4192 84.9009 94.1639 84.9009 93.8517V75.3899C86.4703 75.1118 88.0973 75.0551 89.6956 75.231C92.0065 75.4921 94.2887 76.0029 96.4845 76.6952Z" fill="white"/>
<path d="M244.927 89.9537V53.4036H258.729V89.9537H244.927Z" fill="white"/>
<path d="M277.79 90.0903H264.036V53.5551H308.786C311.286 53.5551 313.638 54.033 315.846 54.9937C318.049 55.9543 319.979 57.2584 321.631 58.916C323.279 60.5735 324.584 62.5048 325.541 64.7198C326.494 66.9348 326.975 69.2941 326.975 71.8028C326.975 74.3115 326.499 76.6708 325.541 78.8858C324.584 81.1009 323.284 83.0321 321.631 84.6897C319.979 86.3472 318.054 87.6513 315.846 88.612C313.638 89.5726 311.286 90.0505 308.786 90.0505H277.735L277.79 90.1052V90.0903ZM303.422 59.568H277.735V83.9231H302.846C304.34 83.9231 305.719 83.5946 306.989 82.9326C308.255 82.2706 309.351 81.3796 310.274 80.2447C311.192 79.1148 311.916 77.8207 312.437 76.3573C312.958 74.8988 313.216 73.3508 313.216 71.7132C313.216 70.0756 312.938 68.4778 312.383 67.0194C311.827 65.561 311.088 64.2718 310.17 63.1618C309.247 62.0468 308.2 61.1708 307.019 60.5287C305.838 59.8866 304.623 59.563 303.372 59.563H303.427L303.422 59.568Z" fill="white"/>
<path d="M349.638 70.466C350.569 69.5627 351.808 69.0587 353.101 69.0587H370.93C372.254 69.0238 373.777 68.5097 374.662 67.6065C375.553 66.7032 375.996 65.5903 375.996 64.2679C375.996 62.9454 375.533 61.8774 374.613 60.9542C373.687 60.031 372.568 59.5718 371.244 59.5718H345.015V89.9537H331.222V53.4036H378.872C381.276 53.4036 383.276 53.9426 384.883 55.0205C386.485 56.0985 387.685 57.4459 388.486 59.0678C389.287 60.6847 389.69 62.4364 389.69 64.3128C389.69 66.1892 389.287 67.9408 388.486 69.5577C387.685 71.1746 386.48 72.5271 384.883 73.605C383.281 74.6829 381.276 75.2219 378.872 75.2219H372.548L390.521 89.9437H377.613C376.499 89.9437 375.454 89.8888 374.478 89.789C373.503 89.6842 372.578 89.4946 371.707 89.2151C370.836 88.9357 369.985 88.5714 369.149 88.1172C368.313 87.6631 367.457 87.0742 366.591 86.3406L353.32 75.2768H344.687L349.633 70.466H349.638Z" fill="white"/>
<path d="M440.523 53.4036C443.032 53.4036 445.391 53.8822 447.605 54.8443C449.815 55.8064 451.751 57.1125 453.408 58.7725C455.06 60.4325 456.369 62.3667 457.33 64.585C458.285 66.8033 458.768 69.1662 458.768 71.6787C458.768 74.1911 458.29 76.554 457.33 78.7723C456.369 80.9907 455.065 82.9249 453.408 84.5849C451.751 86.2449 449.82 87.5509 447.605 88.513C445.391 89.4751 443.032 89.9537 440.523 89.9537H410.737C408.229 89.9537 405.87 89.4751 403.656 88.513C401.441 87.5559 399.51 86.2449 397.853 84.5849C396.195 82.9298 394.891 80.9907 393.931 78.7723C392.97 76.559 392.493 74.1911 392.493 71.6787C392.493 69.1662 392.97 66.8033 393.931 64.585C394.886 62.3667 396.205 60.4325 397.877 58.7725C399.55 57.1175 401.491 55.8064 403.705 54.8443C405.915 53.8872 408.279 53.4036 410.787 53.4036H440.523ZM416.172 59.4754C415.162 59.4754 414.201 59.7047 413.296 60.1583C412.285 60.5771 411.355 61.1603 410.499 61.913C409.643 62.6658 408.906 63.5431 408.279 64.5551C407.652 65.5671 407.164 66.6837 406.816 67.905C406.467 69.1264 406.293 70.4025 406.293 71.7285C406.293 73.0545 406.467 74.3307 406.816 75.552C407.164 76.7734 407.652 77.89 408.279 78.902C408.906 79.9139 409.648 80.7963 410.499 81.544C411.35 82.2967 412.285 82.88 413.296 83.2987C414.201 83.7524 415.157 83.9817 416.172 83.9817H435.193C436.169 83.9817 437.109 83.7524 438.015 83.2987C439.025 82.88 439.956 82.2967 440.812 81.544C441.663 80.7963 442.405 79.9139 443.032 78.902C443.659 77.89 444.146 76.7734 444.495 75.552C444.843 74.3307 445.017 73.0595 445.017 71.7285C445.017 70.3975 444.843 69.1313 444.495 67.905C444.146 66.6837 443.659 65.5671 443.032 64.5551C442.405 63.5431 441.663 62.6608 440.812 61.913C439.956 61.1653 439.025 60.5771 438.015 60.1583C437.109 59.7047 436.169 59.4754 435.193 59.4754H416.172Z" fill="white"/>
<path d="M477.03 53.4933L482.597 53.4385L486.482 58.0916L501.63 76.5048L513.018 58.3557L516.012 53.4036H534.901V90.1054H519.858V59.9748L501.004 90.1054H493.168L470.812 60.8616V89.9958H464.076V53.4385L477.03 53.4933Z" fill="white"/>
<path d="M599.489 80.2506L586.12 59.6201L582.091 53.4036H564.001L556.567 64.8711L542.709 86.2481L540.209 90.1054L542.709 90.0954L551.084 90.0556L556.512 81.4252V81.4152H584.158L584.183 81.455L585.686 83.7794L589.775 90.1054H605.878L599.489 80.2506ZM560.829 76.6819L557.383 80.0465L570.116 59.8043L580.075 75.1689L580.139 75.2684H564.31C563.01 75.2684 561.76 75.7761 560.834 76.6819H560.829Z" fill="white"/>
<path d="M627.469 59.612C626.215 59.612 625.135 60.0347 624.229 60.8851C623.323 61.7354 622.87 63.3963 622.87 64.6196C622.87 65.2313 622.995 65.8081 623.239 66.3502C623.482 66.8922 623.816 67.3696 624.234 67.7774C624.652 68.1851 625.14 68.5084 625.697 68.747C626.255 68.9857 626.847 69.1051 627.474 69.1051H655.117C656.581 69.1051 657.94 69.3686 659.194 69.9007C660.448 70.4328 661.563 71.1589 662.539 72.0838C663.444 72.9739 664.156 73.9834 664.679 75.1122C665.376 76.5494 665.724 78.0561 665.724 79.6325C665.724 81.0696 665.445 82.4222 664.888 83.6903C664.33 84.9584 663.564 86.0723 662.588 87.0271C661.613 87.9868 660.478 88.7377 659.189 89.2847C657.9 89.8317 656.521 90.1052 655.063 90.1052H608.76L613.473 85.4805C614.404 84.5655 615.653 84.0583 616.957 84.0583H647.378C648.632 84.0583 649.712 83.6306 650.618 82.7753C651.524 81.92 651.977 80.8807 651.977 79.6474C651.977 79.0308 651.852 78.454 651.609 77.9069C651.365 77.3599 651.036 76.8825 650.613 76.4748C650.195 76.067 649.707 75.7388 649.15 75.5001C648.592 75.2614 648 75.1421 647.373 75.1421H619.73C618.266 75.1421 616.908 74.8785 615.653 74.3464C614.399 73.8193 613.284 73.0883 612.309 72.1683C611.403 71.2782 610.691 70.2737 610.168 69.1449C609.472 67.7127 609.123 66.2059 609.123 64.6345C609.123 63.1974 609.402 61.2232 609.959 59.9601C610.517 58.697 611.283 57.5881 612.259 56.6283C613.234 55.6736 614.364 54.9177 615.658 54.3757C616.947 53.8286 618.321 53.5551 619.784 53.5551H666.087L661.349 58.1799C660.418 59.0849 659.174 59.5921 657.875 59.5971L627.469 59.607V59.612Z" fill="white"/>
<path d="M196.894 53.4036V74.6226L201.072 70.52C201.997 69.61 203.246 69.0978 204.544 69.0928L225.983 69.0331V53.4036H239.771V89.9537H225.983V75.1795H196.839V89.9537H183.05V53.4036H196.839H196.894Z" fill="white"/>
</svg>
