<svg xmlns="http://www.w3.org/2000/svg" viewBox="0 0 150 85"><defs><style>.a{fill:#fff}</style></defs><path class="a" d="M108.538 0Q92.98 0 75 18.409L39.468 0z"/><path d="M39.468 7.625 75 26.033Q92.98 7.625 108.538 7.625H150V85H0V7.625z" style="fill:#305381"/><path class="a" d="M128.28 61.035h-.678v-5.43h.678c1.561 0 2.037 1.318 2.037 2.715s-.475 2.715-2.037 2.715m-.53 14.932v-9.43h.346l3.647 9.43h8.755l-5.338-11.14a8.138 8.138 0 0 0 3.955-7.15c0-5.095-3.916-8.859-10.942-8.859h-8.716v27.15zm-11.687 0v-6.844h-8.823v-3.536h6.485v-6.845h-6.485v-3.08h8.597v-6.844H99.095v27.15zM86.878 61.035h-.679v-5.43h.679c1.56 0 2.036 1.318 2.036 2.715s-.475 2.715-2.036 2.715m-1.199 14.932v-9.43h.423c7.035 0 10.957-3.764 10.957-8.86s-3.922-8.859-10.957-8.859h-8.727v27.15zM72.624 48.818H64.48v27.15h8.145zM52.262 65.786h-2.715l.236-1.196a42.949 42.949 0 0 0 1.063-7.628h.118a42.057 42.057 0 0 0 1.062 7.665zm-5.085 10.181.887-4.297h4.973l.887 4.297h8.52L56.12 48.818h-9.753l-6.323 27.15zm-30.815 0V58.894h.19a63.027 63.027 0 0 0 1.068 6.464l2.248 10.61h7.775l2.248-10.61a63.01 63.01 0 0 0 1.068-6.464h.19v17.073h6.86V48.818H27.185l-2.248 10.608c-.147.634-.466 2.55-.726 4.503l-.06.47c-.12.937-.222 1.86-.281 2.632h-.229c-.19-2.51-.838-6.616-1.067-7.605l-2.249-10.608H9.502v27.15z"/><path d="M150 8h-41.462Q92.98 8 75 26.409L39.468 8H0V0h39.468L75 18.409Q92.98 0 108.538 0H150z" style="fill:#5fa841"/></svg>