<?xml version="1.0" encoding="UTF-8"?>
<!DOCTYPE svg PUBLIC "-//W3C//DTD SVG 1.1//EN" "http://www.w3.org/Graphics/SVG/1.1/DTD/svg11.dtd">
<!-- Creator: CorelDRAW X8 -->
<svg xmlns="http://www.w3.org/2000/svg" xml:space="preserve" width="1767px" height="247px" version="1.1" style="shape-rendering:geometricPrecision; text-rendering:geometricPrecision; image-rendering:optimizeQuality; fill-rule:evenodd; clip-rule:evenodd"
viewBox="0 0 1767 247"
 xmlns:xlink="http://www.w3.org/1999/xlink">
 <defs>
  <style type="text/css">
   <![CDATA[
    .fil2 {fill:#009900}
    .fil0 {fill:#1F497D}
    .fil1 {fill:#1F497D;fill-rule:nonzero}
   ]]>
  </style>
 </defs>
 <g id="Camada_x0020_1">
  <metadata id="CorelCorpID_0Corel-Layer"/>
  <g id="_1997861356880">
   <g>
    <path class="fil0" d="M0 247l59 -221c5,-16 22,-24 37,-24l159 0 -13 50c-3,12 -17,23 -29,23l-43 0c-26,0 -56,24 -63,49l-24 99c-3,13 -19,24 -32,24l-51 0z"/>
    <path class="fil1" d="M1705 243l1 -44 -62 0 -22 44 -68 0 87 -155 0 0 19 -34c14,-23 31,-50 59,-50l46 0 2 155 0 34c0,32 -18,50 -46,50l-16 0zm5 -168c1,-8 2,-13 3,-16l-2 0 -3 8 -7 15 -30 61 36 0 3 -60 0 -8z"/>
    <path class="fil1" d="M1577 71c-9,-6 -18,-11 -26,-13 -8,-3 -15,-4 -24,-4 -6,0 -11,1 -15,4 -4,4 -7,8 -7,13 -1,5 1,9 3,13 3,3 9,8 19,15 15,10 25,20 31,31 5,10 7,24 6,40 -1,15 -6,29 -15,41 -8,12 -19,21 -33,27 -13,6 -29,9 -47,9 -13,0 -25,-2 -36,-5 -11,-3 -20,-8 -28,-13l16 -59c17,16 34,23 53,23 15,0 23,-6 24,-18 0,-6 -1,-10 -4,-14 -4,-4 -10,-8 -19,-13 -14,-8 -24,-18 -30,-28 -6,-11 -8,-24 -6,-41 1,-15 6,-29 14,-41 8,-13 19,-22 32,-29 13,-6 28,-9 45,-9 13,0 25,1 35,4 10,3 19,6 27,10l-15 57z"/>
    <path class="fil1" d="M1309 243l-7 0 51 -189c9,-25 30,-50 59,-50l16 0 -64 239 13 -50c-6,25 -16,50 -68,50z"/>
    <path class="fil1" d="M1208 243l-7 0 38 -141 10 -36 -1 0 -13 30 -71 147 -56 0 4 -139c1,-9 2,-22 3,-38l-1 0c-5,25 -10,47 -16,68l-29 109 13 -50c-6,25 -17,50 -68,50l42 -155 0 0 9 -34c8,-25 30,-50 59,-50l41 0 -6 143c0,7 -1,15 -2,22l1 0c2,-5 4,-10 6,-16 2,-6 5,-11 7,-16l22 -49 16 -34c12,-24 30,-50 59,-50l59 0 -65 239 14 -50c-6,25 -17,50 -68,50z"/>
    <path class="fil1" d="M919 243l-7 0 51 -189c8,-25 30,-50 59,-50l16 0 -64 239 13 -50c-6,25 -16,50 -68,50z"/>
    <path class="fil1" d="M916 101c-2,28 -10,53 -22,75 -12,22 -27,39 -47,50 -19,11 -41,17 -66,17l-96 0 42 -156 0 1 9 -34c9,-25 30,-50 59,-50l36 0c31,0 54,9 68,26 14,17 20,40 17,71zm-66 6c2,-16 -1,-27 -7,-35 -6,-8 -17,-12 -31,-12l-16 0 -34 127 21 0c19,0 34,-8 46,-22 12,-14 19,-34 21,-58z"/>
    <path class="fil1" d="M596 243l-49 -117c-4,-11 -7,-19 -8,-25l-1 0c-3,14 -6,27 -10,40l-28 102 -57 0 51 -189c9,-25 31,-50 59,-50l8 0 48 111c1,2 2,6 4,11 1,4 2,9 3,12l1 0c0,-4 1,-8 2,-13l33 -121 57 0 -51 189c-8,25 -33,50 -62,50z"/>
    <path class="fil1" d="M321 247c-26,0 -44,-7 -57,-21 -12,-14 -17,-35 -15,-62 1,-10 4,-25 9,-45l16 -57 8 -29 7 -29 31 0 31 0 -7 29 -8 29 -16 58c-2,7 -4,13 -5,19 -2,6 -3,12 -3,16 -1,10 0,17 4,23 4,5 10,8 17,8 9,0 17,-4 23,-11 6,-7 11,-19 15,-35l37 -136 -15 54c8,-27 30,-54 60,-54l17 0 -38 140c-7,27 -16,48 -26,62 -9,14 -21,25 -35,31 -14,7 -31,10 -50,10z"/>
   </g>
   <path class="fil2" d="M176 98c24,0 43,20 43,44 -1,25 -22,45 -46,45 -25,0 -44,-20 -43,-45 1,-24 21,-44 46,-44z"/>
  </g>
 </g>
</svg>
