<svg width="299" height="44" viewBox="0 0 299 44" fill="none" xmlns="http://www.w3.org/2000/svg">
<path d="M170.33 0H4.86C2.1759 0 0 2.1759 0 4.86V38.98C0 41.6641 2.1759 43.84 4.86 43.84H170.33C173.014 43.84 175.19 41.6641 175.19 38.98V4.86C175.19 2.1759 173.014 0 170.33 0Z" fill="#1A5ED4"/>
<path d="M25.77 12.95H13.07C12.87 12.95 12.71 13.11 12.71 13.31V30.5C12.71 30.7 12.87 30.86 13.07 30.86H16.75C16.95 30.86 17.11 30.7 17.11 30.5V23.91H24.78C24.98 23.91 25.14 23.75 25.14 23.55V20.23C25.14 20.03 24.98 19.87 24.78 19.87H17.11V17.08H25.76C25.96 17.08 26.12 16.92 26.12 16.72V13.31C26.12 13.11 25.96 12.95 25.76 12.95H25.77Z" fill="white"/>
<path d="M31.7 12.95H27.99C27.7912 12.95 27.63 13.1111 27.63 13.31V30.5C27.63 30.6988 27.7912 30.86 27.99 30.86H31.7C31.8988 30.86 32.06 30.6988 32.06 30.5V13.31C32.06 13.1111 31.8988 12.95 31.7 12.95Z" fill="white"/>
<path d="M46.6399 21.67C47.0899 21.28 47.4699 20.82 47.7599 20.27C48.1599 19.54 48.3599 18.74 48.3599 17.9C48.3599 16.49 47.8199 15.3 46.7699 14.35C45.7199 13.42 44.3299 12.95 42.6299 12.95H34.3999C34.1999 12.95 34.0399 13.11 34.0399 13.31V27.21C34.0399 27.27 34.0599 27.34 34.0899 27.39L36.0299 30.68C36.0899 30.79 36.2099 30.86 36.3399 30.86H43.2399C45.0099 30.86 46.4399 30.3899 47.4899 29.4599C48.5599 28.5199 49.0999 27.32 49.0999 25.89C49.0999 24.96 48.8499 24.08 48.3599 23.28C47.9599 22.63 47.3799 22.09 46.6499 21.67H46.6399ZM43.6799 19.64C43.3799 19.95 42.9899 20.1 42.4999 20.1H38.3199V16.99H42.4999C42.9899 16.99 43.3799 17.14 43.6799 17.45C43.9799 17.76 44.1299 18.12 44.1299 18.55C44.1299 18.98 43.9799 19.34 43.6799 19.65V19.64ZM38.3199 23.79H42.9999C43.4999 23.79 43.8799 23.94 44.1799 24.24C44.4799 24.54 44.6299 24.9 44.6299 25.32C44.6299 25.74 44.4799 26.1 44.1899 26.39C43.8899 26.68 43.4999 26.83 42.9999 26.83H38.3199V23.79Z" fill="white"/>
<path d="M61.46 24.55C62.38 24.11 63.15 23.43 63.73 22.55C64.4 21.54 64.74 20.44 64.74 19.26C64.74 17.56 64.11 16.07 62.85 14.83C61.6 13.59 60.06 12.96 58.29 12.96H50.7C50.5 12.96 50.34 13.12 50.34 13.32V30.51C50.34 30.71 50.5 30.87 50.7 30.87H54.38C54.58 30.87 54.74 30.71 54.74 30.51V25.22H57.08L60.39 30.7C60.45 30.81 60.57 30.87 60.7 30.87H64.63C64.76 30.87 64.88 30.8 64.94 30.69C65 30.58 65 30.44 64.94 30.33L61.47 24.56L61.46 24.55ZM54.74 16.98H58.29C58.9 16.98 59.41 17.18 59.83 17.6C60.25 18.02 60.46 18.52 60.46 19.12C60.46 19.72 60.25 20.23 59.83 20.66C59.4 21.09 58.9 21.29 58.29 21.29H54.74V16.97V16.98Z" fill="white"/>
<path d="M74.65 12.77C72.14 12.77 69.96 13.67 68.18 15.45C66.4 17.23 65.5 19.41 65.5 21.92C65.5 24.43 66.4 26.6 68.18 28.38C69.96 30.15 72.14 31.05 74.65 31.05C77.16 31.05 79.34 30.15 81.14 28.37C82.9 26.61 83.8 24.46 83.8 22V21.92C83.78 19.41 82.88 17.24 81.1 15.46C79.33 13.68 77.16 12.78 74.64 12.78L74.65 12.77ZM71.28 18.37C72.2 17.4 73.3 16.92 74.65 16.92C76 16.92 77.12 17.39 78.04 18.37C78.96 19.35 79.4 20.51 79.4 21.92C79.4 23.33 78.95 24.48 78.04 25.46C77.13 26.43 76.02 26.89 74.65 26.89C73.28 26.89 72.18 26.42 71.27 25.45C70.34 24.48 69.9 23.32 69.9 21.92C69.9 20.52 70.35 19.35 71.28 18.37Z" fill="white"/>
<path d="M92.9899 12.95H85.3999C85.1999 12.95 85.0399 13.11 85.0399 13.31V30.5C85.0399 30.7 85.1999 30.86 85.3999 30.86H89.1099C89.3099 30.86 89.4699 30.7 89.4699 30.5V25.48L92.9899 25.46C94.7999 25.4399 96.3399 24.84 97.5699 23.65C98.8099 22.46 99.4399 20.98 99.4399 19.25C99.4399 17.52 98.8099 16.06 97.5499 14.82C96.2999 13.58 94.7599 12.95 92.9899 12.95ZM95.1599 19.13C95.1599 19.77 94.9399 20.31 94.4799 20.77C94.0199 21.23 93.4499 21.45 92.7399 21.45L89.4699 21.47V17.01L92.7499 16.99C93.4799 16.99 94.0599 17.19 94.5099 17.61C94.9499 18.02 95.1699 18.52 95.1699 19.14L95.1599 19.13Z" fill="white"/>
<path d="M112.86 26.7199H105.21V13.2999C105.21 13.0999 105.05 12.9399 104.85 12.9399H101.17C100.97 12.9399 100.81 13.0999 100.81 13.2999V27.0499C100.81 27.1099 100.83 27.1799 100.86 27.2299L102.87 30.6699C102.93 30.7799 103.05 30.8499 103.18 30.8499H112.86C113.06 30.8499 113.22 30.6899 113.22 30.4899V27.0799C113.22 26.8799 113.06 26.7199 112.86 26.7199Z" fill="white"/>
<path d="M126.93 15.75C126.88 15.6 126.74 15.5 126.59 15.5H123.43L124.13 13.42C124.17 13.31 124.15 13.19 124.08 13.1C124.01 13.01 123.9 12.95 123.79 12.95H120.13C119.98 12.95 119.84 13.05 119.79 13.19L113.94 30.38C113.9 30.49 113.92 30.61 113.99 30.7C114.06 30.79 114.17 30.85 114.28 30.85H118.11C118.26 30.85 118.4 30.75 118.45 30.6L119.5 27.43H126.27L127.29 30.6C127.34 30.75 127.48 30.85 127.63 30.85H131.44C131.56 30.85 131.66 30.79 131.73 30.7C131.8 30.61 131.82 30.49 131.78 30.38L126.92 15.74L126.93 15.75ZM122.93 17.04L124.97 23.38H120.83L122.93 17.04Z" fill="white"/>
<path d="M145.76 22.4C145.39 22.02 145.01 21.69 144.63 21.42C144.24 21.14 143.73 20.88 143.12 20.66C142.53 20.45 142.03 20.28 141.65 20.16C141.26 20.04 140.75 19.9 140.11 19.74C138.98 19.45 138.15 19.18 137.65 18.94C137.13 18.69 137.07 18.41 137.07 18.22C137.07 17.98 137.13 17.62 137.69 17.32C138.18 17.06 138.85 16.93 139.71 16.93C141.51 16.93 143.48 17.63 145.55 19.01C145.66 19.08 145.8 19.09 145.92 19.03C146.04 18.97 146.11 18.85 146.11 18.71V14.93C146.11 14.81 146.05 14.7 145.95 14.63C144.06 13.37 141.97 12.73 139.73 12.73C137.75 12.73 136.07 13.21 134.73 14.15C133.34 15.13 132.64 16.44 132.64 18.03C132.67 20.12 133.83 21.71 136.07 22.77C136.67 23.04 137.93 23.44 139.94 23.99C140.85 24.23 141.54 24.48 141.98 24.75C142.35 24.97 142.52 25.24 142.52 25.59C142.52 25.97 142.35 26.25 141.99 26.48C141.58 26.73 140.95 26.86 140.1 26.86C138 26.86 135.75 26.17 133.43 24.82C133.32 24.76 133.18 24.76 133.07 24.82C132.96 24.88 132.89 25 132.89 25.13V28.91C132.89 29.05 132.97 29.18 133.1 29.24C134.44 29.85 135.64 30.31 136.69 30.61C137.75 30.91 138.88 31.07 140.05 31.07C142.02 31.07 143.66 30.59 144.94 29.65C146.25 28.68 146.92 27.34 146.92 25.65C146.92 24.99 146.83 24.39 146.64 23.85C146.45 23.3 146.16 22.82 145.76 22.41V22.4Z" fill="white"/>
<path d="M162.1 12.95H148.15C147.95 12.95 147.79 13.11 147.79 13.31V16.75C147.79 16.95 147.95 17.11 148.15 17.11H153.02V30.5C153.02 30.7 153.18 30.86 153.38 30.86H157.06C157.26 30.86 157.42 30.7 157.42 30.5V17.11H162.1C162.3 17.11 162.46 16.95 162.46 16.75V13.31C162.46 13.11 162.3 12.95 162.1 12.95Z" fill="white"/>
<path d="M198.424 27.365H194.304C194.104 27.365 193.974 27.165 194.054 26.975L198.514 16.505C198.554 16.405 198.654 16.335 198.764 16.335H202.884C203.084 16.335 203.214 16.535 203.134 16.725L198.674 27.195C198.634 27.295 198.534 27.365 198.424 27.365Z" fill="#35D32F"/>
<path d="M192.584 27.365H188.464C188.264 27.365 188.134 27.165 188.214 26.975L192.674 16.505C192.714 16.405 192.814 16.335 192.924 16.335H197.044C197.244 16.335 197.374 16.535 197.294 16.725L192.834 27.195C192.794 27.295 192.694 27.365 192.584 27.365Z" fill="#F9E01D"/>
<path d="M211.924 24.9251H207.164V16.6251C207.164 16.5251 207.084 16.4551 206.994 16.4551H204.724C204.624 16.4551 204.554 16.5351 204.554 16.6251V25.0751C204.554 25.0751 204.554 25.1351 204.574 25.1651L205.814 27.2751C205.844 27.3251 205.904 27.3651 205.964 27.3651H211.924C212.024 27.3651 212.094 27.2851 212.094 27.1951V25.0951C212.094 24.9951 212.014 24.9251 211.924 24.9251Z" fill="white"/>
<path d="M221.794 16.4651H219.524C219.424 16.4651 219.354 16.5451 219.354 16.6351V22.9151C219.354 23.5151 219.154 24.0051 218.744 24.4051C218.334 24.8051 217.864 25.0051 217.314 25.0051C216.764 25.0051 216.294 24.8051 215.894 24.4051C215.494 24.0051 215.294 23.5151 215.294 22.9151V16.6351C215.294 16.5351 215.214 16.4651 215.124 16.4651H212.834C212.734 16.4651 212.664 16.5451 212.664 16.6351V22.9151C212.664 24.2251 213.114 25.3251 214.014 26.1851C214.904 27.0451 216.014 27.4751 217.324 27.4751C218.634 27.4751 219.764 27.0351 220.644 26.1651C221.524 25.2951 221.974 24.1951 221.974 22.9051V16.6251C221.974 16.5251 221.894 16.4551 221.804 16.4551L221.794 16.4651Z" fill="white"/>
<path d="M228.604 21.5251L232.864 16.7451C232.914 16.6951 232.924 16.6251 232.894 16.5551C232.864 16.4951 232.804 16.4551 232.734 16.4551H229.954C229.904 16.4551 229.854 16.4751 229.824 16.5151L225.844 21.1251V16.6251C225.844 16.5251 225.764 16.4551 225.674 16.4551H223.384C223.284 16.4551 223.214 16.5351 223.214 16.6251V27.1951C223.214 27.2951 223.294 27.3651 223.384 27.3651H225.674C225.774 27.3651 225.844 27.2851 225.844 27.1951V22.1251L229.904 27.3051C229.904 27.3051 229.984 27.3751 230.044 27.3751H232.854C232.924 27.3751 232.984 27.3351 233.014 27.2751C233.044 27.2151 233.034 27.1451 232.994 27.0951L228.604 21.5351V21.5251Z" fill="white"/>
<path d="M241.664 16.4551H233.994C233.894 16.4551 233.824 16.5351 233.824 16.6251V25.0751C233.824 25.0751 233.824 25.1351 233.844 25.1651L235.084 27.2751C235.114 27.3251 235.174 27.3651 235.234 27.3651H241.664C241.764 27.3651 241.834 27.2851 241.834 27.1951V25.0951C241.834 24.9951 241.754 24.9251 241.664 24.9251H236.434V23.1151H241.054C241.154 23.1151 241.224 23.0351 241.224 22.9451V20.8951C241.224 20.7951 241.144 20.7251 241.054 20.7251H236.434V18.9151H241.664C241.764 18.9151 241.834 18.8351 241.834 18.7451V16.6451C241.834 16.5451 241.754 16.4751 241.664 16.4751V16.4551Z" fill="white"/>
<path d="M256.444 21.085H251.344C251.344 21.085 251.254 21.105 251.224 21.135C251.194 21.165 251.174 21.215 251.174 21.255L251.204 23.175C251.204 23.265 251.284 23.345 251.374 23.345H253.974C253.744 23.825 253.414 24.215 252.984 24.495C252.484 24.815 251.924 24.985 251.314 24.985C250.474 24.985 249.754 24.695 249.194 24.105C248.624 23.525 248.344 22.785 248.344 21.925C248.344 21.065 248.634 20.325 249.194 19.735C249.764 19.145 250.464 18.855 251.314 18.855C251.854 18.855 252.354 18.985 252.804 19.245C253.244 19.505 253.594 19.875 253.824 20.345C253.864 20.415 253.944 20.455 254.024 20.435L256.184 19.815C256.184 19.815 256.274 19.765 256.294 19.725C256.314 19.685 256.314 19.625 256.294 19.585C255.844 18.605 255.174 17.815 254.304 17.235C253.424 16.655 252.424 16.365 251.314 16.365C249.784 16.365 248.454 16.915 247.364 18.005C246.274 19.095 245.724 20.415 245.724 21.945C245.724 23.475 246.274 24.795 247.364 25.875C248.454 26.955 249.784 27.505 251.314 27.505C252.844 27.505 254.094 26.995 255.094 25.985C256.094 24.975 256.614 23.685 256.614 22.135V21.275C256.614 21.175 256.534 21.105 256.444 21.105V21.085Z" fill="white"/>
<path d="M264.214 23.5151C264.794 23.2451 265.274 22.8251 265.644 22.2751C266.054 21.6651 266.254 20.9951 266.254 20.2751C266.254 19.2451 265.864 18.3451 265.104 17.5851C264.344 16.8351 263.404 16.4451 262.324 16.4451H257.644C257.544 16.4451 257.474 16.5251 257.474 16.6151V27.1851C257.474 27.2851 257.554 27.3551 257.644 27.3551H259.914C260.014 27.3551 260.084 27.2751 260.084 27.1851V23.8851H261.594L263.644 27.2751C263.674 27.3251 263.734 27.3551 263.794 27.3551H266.214C266.274 27.3551 266.334 27.3251 266.364 27.2651C266.394 27.2151 266.394 27.1451 266.364 27.0951L264.194 23.5051L264.214 23.5151ZM260.094 18.8351H262.324C262.714 18.8351 263.034 18.9651 263.304 19.2351C263.574 19.5051 263.704 19.8151 263.704 20.2051C263.704 20.5951 263.574 20.9151 263.304 21.1851C263.034 21.4551 262.714 21.5851 262.324 21.5851H260.094V18.8351Z" fill="white"/>
<path d="M272.404 16.345C270.874 16.345 269.544 16.895 268.454 17.985C267.364 19.075 266.814 20.395 266.814 21.925C266.814 23.455 267.364 24.775 268.454 25.855C269.544 26.935 270.874 27.485 272.404 27.485C273.934 27.485 275.274 26.935 276.374 25.845C277.454 24.765 277.994 23.465 277.994 21.965V21.915C277.984 20.385 277.434 19.065 276.344 17.975C275.264 16.885 273.934 16.335 272.404 16.335V16.345ZM270.294 19.705C270.874 19.095 271.564 18.805 272.404 18.805C273.244 18.805 273.954 19.105 274.524 19.705C275.094 20.305 275.374 21.055 275.374 21.915C275.374 22.775 275.084 23.525 274.524 24.125C273.954 24.725 273.254 25.025 272.404 25.025C271.554 25.025 270.854 24.735 270.294 24.125C269.724 23.525 269.434 22.785 269.434 21.915C269.434 21.045 269.724 20.305 270.294 19.705Z" fill="white"/>
<path d="M287.844 16.4651H285.574C285.474 16.4651 285.404 16.5451 285.404 16.6351V22.9151C285.404 23.5151 285.204 24.0051 284.794 24.4051C284.384 24.8051 283.914 25.0051 283.364 25.0051C282.814 25.0051 282.344 24.8051 281.944 24.4051C281.544 24.0051 281.344 23.5151 281.344 22.9151V16.6351C281.344 16.5351 281.264 16.4651 281.174 16.4651H278.884C278.784 16.4651 278.714 16.5451 278.714 16.6351V22.9151C278.714 24.2251 279.164 25.3251 280.064 26.1851C280.954 27.0451 282.064 27.4751 283.374 27.4751C284.684 27.4751 285.814 27.0351 286.694 26.1651C287.574 25.2951 288.024 24.1951 288.024 22.9051V16.6251C288.024 16.5251 287.944 16.4551 287.854 16.4551L287.844 16.4651Z" fill="white"/>
<path d="M296.884 17.5951C296.124 16.8451 295.184 16.4551 294.104 16.4551H289.424C289.324 16.4551 289.254 16.5351 289.254 16.6251V27.1951C289.254 27.2951 289.334 27.3651 289.424 27.3651H291.714C291.814 27.3651 291.884 27.2851 291.884 27.1951V24.0651H294.104C295.204 24.0451 296.144 23.6751 296.894 22.9551C297.644 22.2351 298.034 21.3351 298.034 20.2851C298.034 19.2351 297.644 18.3551 296.884 17.5951ZM295.494 20.2051C295.494 20.6151 295.354 20.9551 295.064 21.2451C294.774 21.5351 294.414 21.6751 293.964 21.6751H291.894V18.8551H293.964C294.424 18.8451 294.794 18.9651 295.084 19.2351C295.364 19.4951 295.504 19.8151 295.504 20.2051H295.494Z" fill="white"/>
</svg>
