<svg xmlns="http://www.w3.org/2000/svg" xmlns:xlink="http://www.w3.org/1999/xlink" width="1068.533" height="134.403" viewBox="0 0 1068.533 134.403">
  <defs>
    <clipPath id="clip-path">
      <rect id="Retângulo_1" data-name="Retângulo 1" width="1068.533" height="134.403" transform="translate(0 0)" fill="#fff"/>
    </clipPath>
  </defs>
  <g id="Logo" transform="translate(0 0)">
    <g id="Grupo_1" data-name="Grupo 1" transform="translate(0 0)" clip-path="url(#clip-path)">
      <path id="Caminho_1" data-name="Caminho 1" d="M1012.563,133.123h-67.7L898.555,78.5H929c13.534,0,17.542-15.885.922-15.885H890.708l-17.731,70.507-52.586.041,5.288-21.55,11.981-49c1.448-6.9,8.2-12.423,17.669-12.423H978.338c32.84,0,21.718,38.484-3,41.548ZM827.755,62.616l3.191-12.423H729.361c-11.856,0-20.88,4.385-23.712,14.1L689.387,121.6,626.875,70.864l23.858-21.2-33.175-.062L594.727,65.974,610.737.524h-48.62c-10.01,0-18.7,6.59-20.543,13.871l-28.686,118.56h66.247l6.19-23.9,24.909,23.9H810.968l4.323-18.025h-62.05l3.294-19.935h62.806l3.735-13.955h-63.6l3.756-18.424ZM517.5,90.735a26.805,26.805,0,0,1-2.308,10.807c-8.2,18.865-37.457,32.861-72.1,32.861-1.176,0-2.33-.021-3.483-.041-21.048-.567-39.849-6.317-52.8-15.109-11.289-7.66-18.13-17.627-18.13-28.517,0-10.87,6.841-20.838,18.13-28.5,12.948-8.792,31.75-14.542,52.8-15.109,1.153-.041,2.307-.041,3.483-.041,34.644,0,63.9,14,72.1,32.861A26.782,26.782,0,0,1,517.5,90.735M444.061,53.593a22.055,22.055,0,0,0-4.448.441c-13.64,2.748-22.853,18.046-25.161,36.407-2.559,20.313,7.428,35.757,20.333,35.757a17.531,17.531,0,0,0,4.828-.692c11.456-3.189,22.851-17.269,25.1-35.064,2.561-20.292-5.687-36.849-20.648-36.849M386.815,58c-6.588,3.189-14.961,5.141-25.1,5.141H222.783L203.94,133.164H117.61L148.9,20.354C151.92,8.12,161.992,0,178.926,0H358.362c11.708,0,21.173,2.266,28.454,5.938,24.383,12.318,23.923,40.457,0,52.062M316.666,14.667h-82.4l-7.2,30.154h90.63c21.572,0,21.634-30.154-1.029-30.154" transform="translate(55.971 -0.001)" fill="#fff" fill-rule="evenodd"/>
      <path id="Caminho_2" data-name="Caminho 2" d="M176.854,5.456C173.749,2.14,168.524,0,161.472,0H18.36L15.738,10.346h82.8c21.34.314,21.572,19.179,8.562,30.4L57.5,83.537,39.2,99.34,0,133.123l39.2-23.648L57.5,98.437,167.453,32.064a33.264,33.264,0,0,0,9.4-8.771c4.469-6.547,4.218-13.3,0-17.836m-70.318,29.8L57.5,77.894,39.2,93.82,4.407,124.058,39.2,73l18.3-26.86,2.015-2.958c3.777-6.569,2.812-13.094-2.015-16.368a13.926,13.926,0,0,0-7.89-2.142H11.353l2.475-9.8H98.079c13.807-.232,15.466,12.821,8.457,20.375M45.858,121.4a7.665,7.665,0,0,0-4.1-4.128,7.669,7.669,0,0,0-2.562-.564c-.137-.006-.276-.009-.415-.009a7.573,7.573,0,0,0-2.922.562,7.229,7.229,0,0,0-2.42,1.637,7.934,7.934,0,0,0-1.694,2.533,7.563,7.563,0,0,0-.016,5.827,7.947,7.947,0,0,0,4.137,4.155,7.454,7.454,0,0,0,2.916.58c.139,0,.277,0,.415-.012a7.513,7.513,0,0,0,2.506-.579,7.918,7.918,0,0,0,2.524-1.7,7.22,7.22,0,0,0,1.641-2.429,7.94,7.94,0,0,0-.009-5.877m-.759,5.586a6.33,6.33,0,0,1-1.446,2.13,7.11,7.11,0,0,1-2.26,1.5,6.77,6.77,0,0,1-2.2.508c-.137.009-.276.012-.415.012a6.637,6.637,0,0,1-2.58-.515,6.955,6.955,0,0,1-3.7-3.693,6.651,6.651,0,0,1,.013-5.164,7.112,7.112,0,0,1,1.514-2.255,6.566,6.566,0,0,1,2.178-1.458,6.7,6.7,0,0,1,2.574-.5c.139,0,.277,0,.415.012a6.846,6.846,0,0,1,4.457,1.99,6.48,6.48,0,0,1,1.438,2.186,6.984,6.984,0,0,1,.5,2.637,6.773,6.773,0,0,1-.494,2.609m-2.45-4.735a2.057,2.057,0,0,0-.891-1.839,4.838,4.838,0,0,0-2.562-.593H35.786v8.805H37.11v-3.87h2.054l.031.063,1.824,3.806h1.514l-1.963-4.06a2.393,2.393,0,0,0,1.514-.76,2.239,2.239,0,0,0,.564-1.551m-1.932,1.277a3.327,3.327,0,0,1-1.522.341c-.137.006-.283.009-.437.009H37.11v-3.164h1.649c.152,0,.3,0,.437.012a3.147,3.147,0,0,1,1.491.372,1.367,1.367,0,0,1,.595,1.244,1.291,1.291,0,0,1-.564,1.187" transform="translate(0 -0.001)" fill="#fff" fill-rule="evenodd"/>
    </g>
  </g>
</svg>
